HIERARCHY
ROOT Hips
{
	OFFSET -3.958830 18.904000 13.208200
	CHANNELS 6 Xposition Yposition Zposition Zrotation Yrotation Xrotation 
	JOINT LHipJoint
	{
		OFFSET 0.000000 0.000000 0.000000
		CHANNELS 3 Zrotation Yrotation Xrotation
		JOINT LeftUpLeg
		{
			OFFSET 1.800000 -1.400000 0.085000
			CHANNELS 3 Zrotation Yrotation Xrotation
			JOINT LeftLeg
			{
				OFFSET 2.215000 -6.000000 0.000000
				CHANNELS 3 Zrotation Yrotation Xrotation
				JOINT LeftFoot
				{
					OFFSET 2.500000 -6.900000 0.000000
					CHANNELS 3 Zrotation Yrotation Xrotation
					JOINT LeftToeBase
					{
						OFFSET 0.200000 -0.500000 1.950000
						CHANNELS 3 Zrotation Yrotation Xrotation
						End Site
						{
							OFFSET 0.000000 0.000000 0.000000
						}
					}
				}
			}
		}
	}
	JOINT RHipJoint
	{
		OFFSET 0.000000 0.000000 0.000000
		CHANNELS 3 Zrotation Yrotation Xrotation
		JOINT RightUpLeg
		{
			OFFSET -1.800000 -1.400000 0.085000
			CHANNELS 3 Zrotation Yrotation Xrotation
			JOINT RightLeg
			{
				OFFSET -2.215000 -6.000000 0.000000
				CHANNELS 3 Zrotation Yrotation Xrotation
				JOINT RightFoot
				{
					OFFSET -2.500000 -6.900000 0.000000
					CHANNELS 3 Zrotation Yrotation Xrotation
					JOINT RightToeBase
					{
						OFFSET -0.200000 -0.500000 1.950000
						CHANNELS 3 Zrotation Yrotation Xrotation
						End Site
						{
							OFFSET 0.000000 0.000000 0.000000
						}
					}
				}
			}
		}
	}
	JOINT LowerBack
	{
		OFFSET 0.000000 0.000000 0.000000
		CHANNELS 3 Zrotation Yrotation Xrotation
		JOINT Spine
		{
			OFFSET -0.087000 1.940000 -0.288900
			CHANNELS 3 Zrotation Yrotation Xrotation
			JOINT Spine1
			{
				OFFSET 0.000000 1.950000 0.060000
				CHANNELS 3 Zrotation Yrotation Xrotation
				JOINT Neck
				{
					OFFSET 0.000000 0.000000 0.000000
					CHANNELS 3 Zrotation Yrotation Xrotation
					JOINT Neck1
					{
						OFFSET 0.000000 1.600000 0.340000
						CHANNELS 3 Zrotation Yrotation Xrotation
						JOINT Head
						{
							OFFSET 0.000000 1.667000 -0.240000
							CHANNELS 3 Zrotation Yrotation Xrotation
							End Site
							{
								OFFSET 0.000000 0.000000 0.000000
							}
						}
					}
				}
				JOINT LeftShoulder
				{
					OFFSET 0.000000 0.000000 0.000000
					CHANNELS 3 Zrotation Yrotation Xrotation
					JOINT LeftArm
					{
						OFFSET 2.700000 1.550000 -0.730000
						CHANNELS 3 Zrotation Yrotation Xrotation
						JOINT LeftForeArm
						{
							OFFSET 5.450000 0.000000 0.000000
							CHANNELS 3 Zrotation Yrotation Xrotation
							JOINT LeftHand
							{
								OFFSET 3.450000 0.000000 0.000000
								CHANNELS 3 Zrotation Yrotation Xrotation
								JOINT LeftHandIndex1
								{
									OFFSET 0.750000 0.000000 0.000000
									CHANNELS 3 Zrotation Yrotation Xrotation
									End Site
									{
										OFFSET 0.000000 0.000000 0.000000
									}
								}
							}
						}
					}
				}
				JOINT RightShoulder
				{
					OFFSET 0.000000 0.000000 0.000000
					CHANNELS 3 Zrotation Yrotation Xrotation
					JOINT RightArm
					{
						OFFSET -2.700000 1.550000 -0.730000
						CHANNELS 3 Zrotation Yrotation Xrotation
						JOINT RightForeArm
						{
							OFFSET -5.450000 0.000000 0.000000
							CHANNELS 3 Zrotation Yrotation Xrotation
							JOINT RightHand
							{
								OFFSET -3.450000 0.000000 0.000000
								CHANNELS 3 Zrotation Yrotation Xrotation
								JOINT RightHandIndex1
								{
									OFFSET -0.750000 0.000000 0.000000
									CHANNELS 3 Zrotation Yrotation Xrotation
									End Site
									{
										OFFSET 0.000000 0.000000 0.000000
									}
								}
							}
						}
					}
				}
			}
		}
	}
}
MOTION
Frames: 8
Frame Time: 0.016667
-1.309550 17.207140 -1.645900 -17.951955 -12.788172 1.642403 -14.856153 11.694887 1.412633 22.402441 2.735975 -21.487102 10.844600 3.674392 13.183195 -0.734932 3.807282 3.270354 1.037890 0.511960 0.787000 18.831811 -9.017330 6.089930 -8.760712 17.295476 -41.732096 74.128873 -59.518251 52.551970 -3.798665 -14.592727 0.314703 0.254620 0.130470 0.237500 -4.864121 0.191884 -8.897531 -3.099747 3.081432 28.357172 -15.584551 5.427454 7.709540 -1.126280 -9.136823 -16.917969 -30.428954 17.732737 66.510911 2.846590 3.188240 -10.982180 4.626752 -20.792082 7.789509 -10.364576 -7.667268 -4.606344 -138.001830 -55.269142 90.027467 -3.246532 3.287908 0.964660 -0.080810 0.187600 0.420900 -1.567528 31.007863 9.606412 55.606885 35.990619 2.362579 28.739494 36.875290 4.663855 1.916336 -1.450305 -0.149210 0.394650 -0.316660 -0.311140 
-1.354330 17.235040 -1.658790 -16.320830 -10.429941 1.329548 -15.029942 11.590007 1.838617 24.752149 2.253719 -22.090663 5.173774 4.817769 12.954083 -0.824452 4.232949 3.103874 1.020460 0.433740 0.839430 18.685757 -8.768458 5.831782 -10.285101 14.074352 -42.975886 83.222308 -61.439963 45.452780 -3.619663 -13.777346 0.496766 0.253770 0.171390 0.247960 -4.392179 -0.479333 -8.939620 -7.819658 3.736669 28.589734 -12.908181 5.041556 7.959816 -1.709470 -8.941890 -16.241156 -30.097063 18.127692 66.332321 1.862180 4.515140 -11.849810 4.880124 -20.315582 6.906657 -10.360151 -9.880898 -4.223955 -139.448517 -55.307426 92.345167 -3.301064 3.215605 1.027570 -0.047970 0.161450 0.385550 -0.607961 30.449627 9.351101 55.006319 35.701525 2.865045 27.327520 35.917865 4.439314 1.871702 -1.374168 -0.227670 0.450220 -0.266790 -0.374340 
-1.375510 17.227870 -1.654150 -14.576942 -7.366941 2.047452 -15.186827 11.390746 2.368961 26.250988 1.430646 -24.175251 0.441682 5.764467 12.895421 -0.815016 4.602318 2.951350 0.992300 0.403220 0.840200 18.568894 -8.518409 5.557344 -12.059067 10.808366 -44.244628 88.256369 -63.463665 41.441126 -3.505191 -13.288757 0.629949 0.250090 0.194380 0.213930 -3.994861 -1.097605 -9.013654 -11.462178 3.711512 27.974190 -11.003723 4.055225 8.077514 -2.030160 -8.572442 -15.891618 -29.573638 18.301223 66.709995 2.134970 5.106020 -11.236310 4.824644 -19.698856 6.556060 -11.207700 -10.986302 -3.819147 -139.615576 -55.442289 93.158249 -3.323735 3.178448 1.022630 -0.035370 0.136020 0.373270 0.179777 29.342864 9.100527 55.240179 34.671736 3.262291 27.752187 35.489457 4.654138 1.889352 -1.347297 -0.263620 0.485100 -0.254100 -0.387370 
-1.367190 17.189260 -1.653480 -13.519766 -4.155441 3.351505 -15.306743 11.043218 2.968011 28.082519 0.661014 -27.047796 -3.385870 6.611205 12.958920 -0.813222 5.079901 2.774773 0.930800 0.320850 0.820410 18.512723 -8.247393 5.342734 -14.302825 8.058471 -45.420267 88.935788 -66.905833 41.272017 -3.432427 -13.067116 0.716584 0.223030 0.234810 0.180150 -3.746842 -1.537817 -9.162416 -12.509430 2.594934 27.539715 -10.675800 2.612403 8.459838 -1.629939 -8.208701 -15.760519 -29.010784 18.414667 67.362529 1.356030 5.528390 -9.765420 4.625261 -18.771895 6.670640 -12.897816 -10.784776 -3.570236 -140.072393 -55.797826 94.391663 -3.382055 3.111721 1.025760 -0.003580 0.090210 0.357570 -0.331319 27.674193 8.762489 55.596389 33.682416 3.165230 30.626178 37.136192 5.758485 1.884876 -1.345240 -0.321880 0.521240 -0.222170 -0.410290 
-1.313900 17.141470 -1.672740 -14.370383 -2.011566 3.772714 -15.335118 10.493072 3.510261 31.399621 0.951219 -28.770768 -6.365162 7.615466 13.280171 -0.770375 5.749143 2.473608 0.946950 0.337280 0.836440 18.586353 -7.901208 5.323496 -15.946631 7.675768 -46.068536 84.261117 -69.657171 45.569712 -3.493750 -13.281586 0.652931 0.231780 0.178950 0.184270 -3.828685 -1.493221 -9.441781 -9.376823 0.729953 29.208627 -11.913738 1.493195 9.080345 -0.754732 -8.199341 -15.725078 -29.749549 19.125119 68.222760 -0.008690 5.555630 -10.583800 3.973090 -17.788103 6.980408 -15.086392 -9.835634 -3.908463 -140.275863 -56.236919 94.709172 -3.392903 3.108590 1.049110 -0.026360 0.108670 0.332440 -1.458496 26.078102 8.306969 54.921822 32.739341 2.171623 34.217343 39.357329 7.179614 1.871800 -1.386798 -0.309490 0.492530 -0.216250 -0.432840 
-1.256590 17.087410 -1.700430 -14.634273 -0.456991 3.797629 -15.334114 10.001211 3.759222 33.335532 1.597163 -30.532177 -7.919778 8.744532 15.540684 -0.741607 6.382583 2.197416 0.962820 0.341020 0.838430 18.685270 -7.450245 5.598445 -18.415131 8.534674 -45.916869 72.515396 -72.214837 56.719091 -3.747981 -14.274943 0.395874 0.222520 0.152230 0.256990 -3.976886 -1.376537 -9.714528 -6.746593 -0.690825 31.607619 -13.082517 0.661318 9.639008 -0.045466 -8.258741 -15.545149 -29.862624 19.463731 68.220152 -0.990350 5.463350 -12.215060 3.697753 -16.383477 7.269065 -17.825989 -8.298961 -4.678266 -139.058927 -55.452773 90.679731 -3.430823 3.173715 1.085170 -0.031850 0.147670 0.316390 -2.647385 24.246891 7.860612 54.799304 31.498949 0.307398 38.149516 42.163028 8.800177 1.841828 -1.450276 -0.273260 0.447690 -0.190830 -0.436810 
-1.217330 17.017130 -1.728600 -14.557635 0.565329 3.498479 -15.397391 9.731523 4.073147 35.290234 2.315021 -31.524684 -9.811236 10.028113 17.601404 -0.687106 7.083963 1.909887 0.987480 0.341440 0.880170 18.708522 -7.108427 5.638656 -20.855831 9.323295 -46.093130 68.476685 -68.669810 58.209774 -3.803977 -14.628890 0.267172 0.219740 0.101030 0.286930 -3.919761 -1.484549 -9.897580 -5.672999 -1.066758 34.184475 -12.452181 0.563008 10.331096 0.323511 -8.028881 -15.478339 -29.094408 19.630375 67.827146 -1.167520 5.837790 -13.424750 3.423911 -15.170163 7.547008 -21.561708 -7.287011 -5.312749 -137.143384 -54.599857 85.659958 -3.429634 3.236747 1.124220 -0.062410 0.179630 0.294160 -3.164511 22.729995 7.670628 53.785369 28.819753 -2.451034 43.513130 45.592028 11.247493 1.836409 -1.528479 -0.258090 0.406430 -0.193760 -0.461480 
-1.180500 16.913860 -1.761110 -14.568856 1.565695 3.413849 -15.456177 9.494631 4.437440 37.381662 3.000860 -32.508449 -11.583922 11.299197 19.552859 -0.565261 7.751151 1.648684 1.029530 0.365490 0.918380 18.731375 -6.864084 5.577922 -22.795086 9.947530 -46.283367 66.481566 -63.153943 56.393989 -3.744792 -14.642538 0.189695 0.222090 0.037710 0.327210 -3.864888 -1.539794 -10.069480 -4.306550 -1.421241 36.679406 -11.724776 0.523637 10.626472 0.497708 -7.966620 -14.851708 -28.041056 18.621327 65.518827 -1.189920 5.508060 -13.415480 2.530670 -13.159095 7.013276 -24.713199 -7.548673 -5.531433 -134.177085 -53.905397 80.499323 -3.398653 3.391028 1.104260 -0.089930 0.198440 0.290710 -2.774476 20.521441 7.320930 52.390551 25.531369 -4.571342 50.686382 48.550621 14.798122 1.872951 -1.684572 -0.204590 0.308330 -0.232200 -0.462830 
